<svg width="110.4211" height="109.8461" xmlns="http://www.w3.org/2000/svg">

 <metadata id="metadata2174">image/svg+xml</metadata>
 <g>
  <title>background</title>
  <rect fill="none" id="canvas_background" height="402" width="582" y="-1" x="-1"/>
 </g>
 <g>
  <title>Layer 1</title>
  <g id="layer1">
   <g id="g1894">
    <path fill="#bbbbbb" fill-rule="nonzero" marker-start="none" marker-mid="none" marker-end="none" stroke-miterlimit="4" stroke-dashoffset="0" id="path8615" d="m54.8125,0c-28.03173,0 -26.28125,12.15625 -26.28125,12.15625l0.03125,12.59375l26.75,0l0,3.78125l-37.375,0c0,0 -17.9375,-2.03428 -17.9375,26.25c0,28.28427 15.65625,27.28125 15.65625,27.28125l9.34375,0l0,-13.125c0,0 -0.50365,-15.65625 15.40625,-15.65625c15.9099,0 26.53125,0 26.53125,0c0,0 14.90625,0.24096 14.90625,-14.40625c0,-14.64721 0,-24.21875 0,-24.21875c0,0 2.26318,-14.65625 -27.03125,-14.65625zm-14.75,8.46875c2.66143,0 4.8125,2.15107 4.8125,4.8125c0,2.66143 -2.15107,4.8125 -4.8125,4.8125c-2.66143,0 -4.8125,-2.15107 -4.8125,-4.8125c0,-2.66143 2.15107,-4.8125 4.8125,-4.8125z"/>
    <path fill="#bbbbbb" fill-rule="nonzero" marker-start="none" marker-mid="none" marker-end="none" stroke-miterlimit="4" stroke-dashoffset="0" d="m55.6086,109.8461c28.03174,0 26.28125,-12.15625 26.28125,-12.15625l-0.03125,-12.59375l-26.75,0l0,-3.78125l37.375,0c0,0 17.9375,2.03427 17.9375,-26.25001c0.00001,-28.28427 -15.65625,-27.28125 -15.65625,-27.28125l-9.34375,0l0,13.125c0,0 0.50366,15.65625 -15.40625,15.65625c-15.9099,0 -26.53125,0 -26.53125,0c0,0 -14.90625,-0.24096 -14.90625,14.40626c0,14.6472 0,24.21875 0,24.21875c0,0 -2.26318,14.65625 27.03125,14.65625zm14.75,-8.46875c-2.66143,0 -4.8125,-2.15107 -4.8125,-4.8125c0,-2.66143 2.15107,-4.8125 4.8125,-4.8125c2.66143,0 4.8125,2.15107 4.8125,4.8125c0.00001,2.66143 -2.15107,4.8125 -4.8125,4.8125z" id="path8620"/>
   </g>
  </g>
 </g>
</svg>